<?xml version="1.0" standalone="no"?>
<!DOCTYPE svg PUBLIC "-//W3C//DTD SVG 20010904//EN"
 "http://www.w3.org/TR/2001/REC-SVG-20010904/DTD/svg10.dtd">
<svg version="1.0" xmlns="http://www.w3.org/2000/svg"
 width="920.000000pt" height="540.000000pt" viewBox="0 0 920.000000 540.000000"
 preserveAspectRatio="xMidYMid meet">

<g transform="translate(0.000000,540.000000) scale(0.100000,-0.100000)"
fill="#000000" stroke="none">
<path d="M4510 5049 c-14 -5 -457 -252 -984 -547 -667 -373 -971 -549 -997
-575 -73 -74 -70 -5 -67 -1243 l3 -1109 28 -47 c15 -26 42 -58 60 -72 36 -27
1865 -1056 1942 -1092 56 -27 129 -31 186 -10 44 15 1921 1068 1966 1102 18
14 45 46 60 72 l28 47 3 1095 c2 789 0 1110 -8 1148 -24 108 -1 94 -1075 694
l-970 542 -75 3 c-41 2 -86 -2 -100 -8z m347 -795 c235 -40 439 -123 638 -257
119 -81 322 -284 403 -404 l62 -92 -342 -195 c-329 -188 -344 -195 -358 -177
-121 155 -189 215 -316 276 -112 55 -210 77 -344 77 -341 0 -631 -206 -741
-524 -149 -437 99 -901 546 -1019 110 -29 279 -29 389 0 166 44 319 143 420
271 30 39 56 75 58 82 3 7 135 -60 349 -177 189 -104 346 -190 347 -191 6 -4
-70 -118 -133 -199 -325 -414 -837 -636 -1366 -594 -710 56 -1303 602 -1423
1309 -67 400 24 810 257 1155 80 118 284 322 402 402 224 151 479 245 740 272
107 11 304 4 412 -15z m755 -1326 l3 -113 113 -3 112 -3 0 -109 0 -109 -112
-3 -113 -3 -3 -112 -3 -113 -109 0 -109 0 -3 113 -3 112 -112 3 -113 3 0 109
0 109 113 3 112 3 3 113 3 112 109 0 109 0 3 -112z m788 -3 l0 -115 115 0 115
0 0 -110 0 -110 -115 0 -115 0 0 -115 0 -115 -115 0 -115 0 0 115 0 115 -110
0 -110 0 0 110 0 110 110 0 110 0 0 115 0 115 115 0 115 0 0 -115z"/>
</g>
</svg>
